{
  "accessors": [
    {
      "bufferView": 2,
      "componentType": 5126,
      "count": 2734,
      "max": [
        0.6997372508049011,
        0.7569612860679626,
        0.28600841760635376
      ],
      "min": [
        -0.7002628445625305,
        -5.960464477539063e-08,
        -0.31399160623550415
      ],
      "type": "VEC3"
    },
    {
      "bufferView": 2,
      "byteOffset": 32808,
      "componentType": 5126,
      "count": 2734,
      "max": [
        1.0,
        1.0,
        1.0
      ],
      "min": [
        -1.0,
        -1.0,
        -1.0
      ],
      "type": "VEC3"
    },
    {
      "bufferView": 3,
      "componentType": 5126,
      "count": 2734,
      "max": [
        1.0,
        1.0,
        1.0,
        1.0
      ],
      "min": [
        -1.0,
        -1.0,
        -1.0,
        -1.0
      ],
      "type": "VEC4"
    },
    {
      "bufferView": 1,
      "componentType": 5126,
      "count": 2734,
      "max": [
        0.9991517663002014,
        0.9999456405639648
      ],
      "min": [
        4.655016527976841e-05,
        0.002238411456346512
      ],
      "type": "VEC2"
    },
    {
      "bufferView": 0,
      "componentType": 5125,
      "count": 9924,
      "type": "SCALAR"
    },
    {
      "bufferView": 2,
      "byteOffset": 65616,
      "componentType": 5126,
      "count": 1997,
      "max": [
        0.19749999046325684,
        0.07849998772144318,
        0.021031171083450317
      ],
      "min": [
        -0.19749996066093445,
        -0.07850000262260437,
        -0.41499996185302734
      ],
      "type": "VEC3"
    },
    {
      "bufferView": 2,
      "byteOffset": 89580,
      "componentType": 5126,
      "count": 1997,
      "max": [
        1.0,
        1.0,
        1.0
      ],
      "min": [
        -1.0,
        -1.0,
        -1.0
      ],
      "type": "VEC3"
    },
    {
      "bufferView": 3,
      "byteOffset": 43744,
      "componentType": 5126,
      "count": 1997,
      "max": [
        1.0,
        1.0,
        1.0,
        1.0
      ],
      "min": [
        -1.0,
        -1.0,
        -0.9994702935218811,
        -1.0
      ],
      "type": "VEC4"
    },
    {
      "bufferView": 1,
      "byteOffset": 21872,
      "componentType": 5126,
      "count": 1997,
      "max": [
        0.9984779357910156,
        0.9741870760917664
      ],
      "min": [
        0.32128942012786865,
        0.015641476958990097
      ],
      "type": "VEC2"
    },
    {
      "bufferView": 0,
      "byteOffset": 39696,
      "componentType": 5125,
      "count": 7788,
      "type": "SCALAR"
    },
    {
      "bufferView": 2,
      "byteOffset": 113544,
      "componentType": 5126,
      "count": 841,
      "max": [
        0.00024753808975219727,
        0.2309870421886444,
        0.02127861976623535
      ],
      "min": [
        -0.3947524130344391,
        -0.23098695278167725,
        -0.01723235845565796
      ],
      "type": "VEC3"
    },
    {
      "bufferView": 2,
      "byteOffset": 123636,
      "componentType": 5126,
      "count": 841,
      "max": [
        1.0,
        0.9979715347290039,
        1.0
      ],
      "min": [
        -1.0,
        -0.9979715347290039,
        -1.0
      ],
      "type": "VEC3"
    },
    {
      "bufferView": 3,
      "byteOffset": 75696,
      "componentType": 5126,
      "count": 841,
      "max": [
        0.9849869012832642,
        1.0,
        0.9994069337844849,
        1.0
      ],
      "min": [
        -0.9998765587806702,
        -1.0,
        -0.9994692802429199,
        1.0
      ],
      "type": "VEC4"
    },
    {
      "bufferView": 1,
      "byteOffset": 37848,
      "componentType": 5126,
      "count": 841,
      "max": [
        0.9959719181060791,
        0.9655135273933411
      ],
      "min": [
        0.005273074842989445,
        0.059766046702861786
      ],
      "type": "VEC2"
    },
    {
      "bufferView": 0,
      "byteOffset": 70848,
      "componentType": 5125,
      "count": 3588,
      "type": "SCALAR"
    }
  ],
  "asset": {
    "extras": {
      "author": "AleixoAlonso (https://sketchfab.com/AleixoAlonso)",
      "license": "CC-BY-4.0 (http://creativecommons.org/licenses/by/4.0/)",
      "source": "https://sketchfab.com/3d-models/office-desk-140x60-9262f311271c4c4390341e526d3fe103",
      "title": "Office Desk 140x60"
    },
    "generator": "Sketchfab-12.66.0",
    "version": "2.0"
  },
  "bufferViews": [
    {
      "buffer": 0,
      "byteLength": 85200,
      "name": "floatBufferViews",
      "target": 34963
    },
    {
      "buffer": 0,
      "byteLength": 44576,
      "byteOffset": 85200,
      "byteStride": 8,
      "name": "floatBufferViews",
      "target": 34962
    },
    {
      "buffer": 0,
      "byteLength": 133728,
      "byteOffset": 129776,
      "byteStride": 12,
      "name": "floatBufferViews",
      "target": 34962
    },
    {
      "buffer": 0,
      "byteLength": 89152,
      "byteOffset": 263504,
      "byteStride": 16,
      "name": "floatBufferViews",
      "target": 34962
    }
  ],
  "buffers": [
    {
      "byteLength": 352656,
      "uri": "scene.bin"
    }
  ],
  "images": [
    {
      "uri": "textures/TBL0003_Desk_baseColor.png"
    },
    {
      "uri": "textures/TBL0003_Desk_metallicRoughness.png"
    },
    {
      "uri": "textures/TBL0003_Desk_normal.png"
    }
  ],
  "materials": [
    {
      "doubleSided": true,
      "name": "TBL0003_Desk",
      "normalTexture": {
        "index": 2
      },
      "pbrMetallicRoughness": {
        "baseColorTexture": {
          "index": 0
        },
        "metallicFactor": 0.0,
        "metallicRoughnessTexture": {
          "index": 1
        }
      }
    }
  ],
  "meshes": [
    {
      "name": "Object_0",
      "primitives": [
        {
          "attributes": {
            "NORMAL": 1,
            "POSITION": 0,
            "TANGENT": 2,
            "TEXCOORD_0": 3
          },
          "indices": 4,
          "material": 0,
          "mode": 4
        }
      ]
    },
    {
      "name": "Object_1",
      "primitives": [
        {
          "attributes": {
            "NORMAL": 6,
            "POSITION": 5,
            "TANGENT": 7,
            "TEXCOORD_0": 8
          },
          "indices": 9,
          "material": 0,
          "mode": 4
        }
      ]
    },
    {
      "name": "Object_2",
      "primitives": [
        {
          "attributes": {
            "NORMAL": 11,
            "POSITION": 10,
            "TANGENT": 12,
            "TEXCOORD_0": 13
          },
          "indices": 14,
          "material": 0,
          "mode": 4
        }
      ]
    }
  ],
  "nodes": [
    {
      "children": [
        1
      ],
      "matrix": [
        1.0,
        0.0,
        0.0,
        0.0,
        0.0,
        2.220446049250313e-16,
        -1.0,
        0.0,
        0.0,
        1.0,
        2.220446049250313e-16,
        0.0,
        0.0,
        0.0,
        0.0,
        1.0
      ],
      "name": "Sketchfab_model"
    },
    {
      "children": [
        2
      ],
      "name": "root"
    },
    {
      "children": [
        3,
        5,
        7
      ],
      "matrix": [
        1.0,
        0.0,
        0.0,
        0.0,
        0.0,
        2.220446049250313e-16,
        1.0,
        0.0,
        0.0,
        -1.0,
        2.220446049250313e-16,
        0.0,
        0.0,
        0.0,
        0.0,
        1.0
      ],
      "name": "GLTF_SceneRootNode"
    },
    {
      "children": [
        4
      ],
      "name": "#TBL0003_Desk_140x60_Gray_0"
    },
    {
      "mesh": 0,
      "name": "Object_4"
    },
    {
      "children": [
        6
      ],
      "matrix": [
        1.0,
        0.0,
        0.0,
        0.0,
        0.0,
        1.0,
        0.0,
        0.0,
        0.0,
        0.0,
        1.0,
        0.0,
        0.4995921850204468,
        0.5432294607162476,
        0.26483744382858276,
        1.0
      ],
      "name": "#TBL0003_Drawer_1"
    },
    {
      "mesh": 1,
      "name": "Object_6"
    },
    {
      "children": [
        8
      ],
      "matrix": [
        1.0,
        0.0,
        0.0,
        0.0,
        0.0,
        1.0,
        0.0,
        0.0,
        0.0,
        0.0,
        1.0,
        0.0,
        0.6968446373939514,
        0.2329617738723755,
        0.26458966732025146,
        1.0
      ],
      "name": "#TBL0003_Door_2"
    },
    {
      "mesh": 2,
      "name": "Object_8"
    }
  ],
  "samplers": [
    {
      "magFilter": 9729,
      "minFilter": 9987,
      "wrapS": 10497,
      "wrapT": 10497
    }
  ],
  "scene": 0,
  "scenes": [
    {
      "name": "Sketchfab_Scene",
      "nodes": [
        0
      ]
    }
  ],
  "textures": [
    {
      "sampler": 0,
      "source": 0
    },
    {
      "sampler": 0,
      "source": 1
    },
    {
      "sampler": 0,
      "source": 2
    }
  ]
}
