<svg xmlns="http://www.w3.org/2000/svg" xmlns:xlink="http://www.w3.org/1999/xlink" version="1.1" width="256" height="256" viewBox="0 0 256 256" xml:space="preserve">

<defs>
</defs>
<g style="stroke: none; stroke-width: 0; stroke-dasharray: none; stroke-linecap: butt; stroke-linejoin: miter; stroke-miterlimit: 10; fill: none; fill-rule: nonzero; opacity: 1;" transform="translate(1.4065934065934016 1.4065934065934016) scale(2.81 2.81)" >
	<path d="M 90 31.094 h -6.299 c -1.325 -2.395 -1.325 -4.791 0 -7.186 H 90 V 31.094 z" style="stroke: none; stroke-width: 1; stroke-dasharray: none; stroke-linecap: butt; stroke-linejoin: miter; stroke-miterlimit: 10; fill: rgb(90,81,107); fill-rule: nonzero; opacity: 1;" transform=" matrix(1 0 0 1 0 0) " stroke-linecap="round" />
	<path d="M 9.15 25.122 c -1.627 -0.657 -2.893 -1.988 -3.842 -3.914 c -0.154 -0.312 -0.477 -0.505 -0.825 -0.505 H 0.926 c -0.666 0 -1.107 0.678 -0.853 1.293 c 1.507 3.648 3.649 6.342 6.88 7.401 C 9.38 28.086 9.874 26.645 9.15 25.122 z" style="stroke: none; stroke-width: 1; stroke-dasharray: none; stroke-linecap: butt; stroke-linejoin: miter; stroke-miterlimit: 10; fill: rgb(90,81,107); fill-rule: nonzero; opacity: 1;" transform=" matrix(1 0 0 1 0 0) " stroke-linecap="round" />
	<path d="M 74.557 18.38 v 2.322 c 3.048 1.53 6.097 1.53 9.145 0 l -5.673 -4.097 C 76.58 15.559 74.557 16.594 74.557 18.38 z" style="stroke: none; stroke-width: 1; stroke-dasharray: none; stroke-linecap: butt; stroke-linejoin: miter; stroke-miterlimit: 10; fill: rgb(90,81,107); fill-rule: nonzero; opacity: 1;" transform=" matrix(1 0 0 1 0 0) " stroke-linecap="round" />
	<path d="M 76.4 20.702 H 16.39 c -3.051 0 -5.846 1.706 -7.241 4.419 l -4.444 8.645 H 2.42 c -1.098 0 -1.987 0.89 -1.987 1.987 v 6.774 c 0 1.045 0.814 1.912 1.857 1.978 c 3.771 0.238 6.07 2.169 5.225 7.453 L 4.265 69.583 c -0.406 2.201 1.284 4.23 3.521 4.23 h 12.337 c 1.797 0 3.316 -1.333 3.55 -3.115 l 2.368 -18.042 c 0.044 0.006 0.083 0.026 0.128 0.026 h 2.053 c 6.199 0 11.476 -4.225 12.833 -10.273 c 0.017 -0.074 0.005 -0.146 0.005 -0.219 h 32.933 c 1.72 0 3.114 -1.394 3.114 -3.114 v -5.066 h 6.593 V 20.702 H 76.4 z M 28.223 50.683 h -1.922 l 0.703 -5.352 c 0.236 -1.797 1.767 -3.14 3.579 -3.14 h 8.464 C 37.818 47.2 33.403 50.683 28.223 50.683 z" style="stroke: none; stroke-width: 1; stroke-dasharray: none; stroke-linecap: butt; stroke-linejoin: miter; stroke-miterlimit: 10; fill: rgb(150,148,162); fill-rule: nonzero; opacity: 1;" transform=" matrix(1 0 0 1 0 0) " stroke-linecap="round" />
	<path d="M 75.093 35.011 H 32.714 c -0.552 0 -1 -0.448 -1 -1 s 0.448 -1 1 -1 h 42.379 c 0.553 0 1 0.448 1 1 S 75.646 35.011 75.093 35.011 z" style="stroke: none; stroke-width: 1; stroke-dasharray: none; stroke-linecap: butt; stroke-linejoin: miter; stroke-miterlimit: 10; fill: rgb(90,81,107); fill-rule: nonzero; opacity: 1;" transform=" matrix(1 0 0 1 0 0) " stroke-linecap="round" />
	<path d="M 16.47 34.767 H 7.469 c -0.552 0 -1 -0.448 -1 -1 s 0.448 -1 1 -1 h 9.001 c 0.552 0 1 0.448 1 1 S 17.022 34.767 16.47 34.767 z" style="stroke: none; stroke-width: 1; stroke-dasharray: none; stroke-linecap: butt; stroke-linejoin: miter; stroke-miterlimit: 10; fill: rgb(90,81,107); fill-rule: nonzero; opacity: 1;" transform=" matrix(1 0 0 1 0 0) " stroke-linecap="round" />
	<path d="M 27.478 35.011 c -0.359 0 -0.706 -0.193 -0.885 -0.533 l -4.527 -8.57 c -0.258 -0.489 -0.071 -1.094 0.417 -1.352 c 0.489 -0.259 1.094 -0.071 1.352 0.417 l 4.527 8.57 c 0.258 0.489 0.071 1.094 -0.417 1.352 C 27.795 34.974 27.635 35.011 27.478 35.011 z" style="stroke: none; stroke-width: 1; stroke-dasharray: none; stroke-linecap: butt; stroke-linejoin: miter; stroke-miterlimit: 10; fill: rgb(90,81,107); fill-rule: nonzero; opacity: 1;" transform=" matrix(1 0 0 1 0 0) " stroke-linecap="round" />
	<path d="M 22.802 35.011 c -0.359 0 -0.706 -0.193 -0.885 -0.533 l -4.527 -8.57 c -0.258 -0.489 -0.071 -1.094 0.417 -1.352 c 0.488 -0.259 1.094 -0.071 1.352 0.417 l 4.527 8.57 c 0.258 0.489 0.071 1.094 -0.417 1.352 C 23.119 34.974 22.959 35.011 22.802 35.011 z" style="stroke: none; stroke-width: 1; stroke-dasharray: none; stroke-linecap: butt; stroke-linejoin: miter; stroke-miterlimit: 10; fill: rgb(90,81,107); fill-rule: nonzero; opacity: 1;" transform=" matrix(1 0 0 1 0 0) " stroke-linecap="round" />
	<path d="M 11.706 47.127 L 7.857 67.055 c -0.201 1.041 0.597 2.008 1.657 2.008 h 9.546 c 0.846 0 1.561 -0.626 1.673 -1.464 l 2.659 -19.928 c 0.135 -1.012 -0.652 -1.911 -1.673 -1.911 h -8.357 C 12.554 45.759 11.859 46.333 11.706 47.127 z" style="stroke: none; stroke-width: 1; stroke-dasharray: none; stroke-linecap: butt; stroke-linejoin: miter; stroke-miterlimit: 10; fill: rgb(90,81,107); fill-rule: nonzero; opacity: 1;" transform=" matrix(1 0 0 1 0 0) " stroke-linecap="round" />
</g>
</svg>