<?xml version="1.0" encoding="UTF-8" standalone="no"?>
<svg
   height="128"
   width="128"
   version="1.1"
   id="svg24"
   xmlns="http://www.w3.org/2000/svg"
   xmlns:svg="http://www.w3.org/2000/svg">
  <defs
     id="defs28" />
  <rect
     x="2"
     y="2"
     width="124"
     height="124"
     rx="14"
     fill="#363d52"
     stroke="#212532"
     stroke-width="4"
     id="rect2"
     style="fill:#668fa4;fill-opacity:1;stroke:#90b1d7;stroke-opacity:1" />
  <g
     id="OBJECTS"
     transform="matrix(0.18639422,0,0,0.24128402,-6.0151862,3.9370483)">
	<g
   id="g352">
		<g
   id="g316">
			<path
   style="fill:#373d52"
   d="m 627.817,268.051 -1.708,-0.014 -5.344,-0.068 -14.707,-17.809 -4.551,0.369 -13.832,-8.706 -7.394,0.328 -18.93,-17.7 3.157,-7.586 -9.636,-11.208 -9.294,-1.394 -0.67,-3.239 -4.633,-1.449 -7.873,-15.923 -5.535,-14.871 -1.708,-9.13 -9.978,-4.934 -1.9,-2.118 -5.399,-6.041 -18.233,20.119 -12.561,6.397 -13.053,17.987 7.613,14.133 24.684,19.012 2.077,4.688 6.547,3.649 5.741,11.85 10.278,5.481 13.094,14.283 -19.805,-10.319 0.943,3.157 2.884,6.834 -6.615,-5.221 -6.615,-1.613 10.005,18.848 -16.388,-15.65 -7.736,-12.26 -5.125,-3.964 -0.246,4.155 -23.823,-26.092 -7.709,-1.9 -8.611,-6.588 -8.228,-14.092 -8.953,-9.54 -5.084,0.437 -11.549,-8.529 5.781,11.126 -10.757,-7.449 1.927,6.356 -15.622,-8.351 0.902,-6.588 -2.501,-5.864 -1.749,0.67 2.46,-8.119 -2.802,2.775 -0.56,-5.823 -3.909,-1.353 3.13,-0.957 -0.342,-11.358 -13.08,-9.075 -1.052,7.394 -3.964,5.112 1.367,-11.604 2.775,-4.715 -2.925,-2.214 -2.98,3.458 -7.709,-11.085 5.891,-16.921 -2.351,1.23 0.314,-8.884 -3.198,2.898 -4.961,9.786 -15.062,20.01 -12,8.419 -7.804,16.798 v 0.014 l -1.134,2.447 -12.342,20.229 -18.014,14.474 -8.146,10.989 12.861,11.194 20.598,-9.417 c 4.989,3.786 9.964,7.572 14.953,11.358 l 51.569,37.778 25.586,13.641 14.57,-0.328 50.353,38.926 16.798,12.984 4.715,-1.9 3.663,3.349 10.593,3.827 9.814,5.631 17.714,-15.089 6.233,-13.518 15.363,22.648 4.551,-2.118 4.552,5.973 10.524,-8.406 5.344,-9.335 3.69,0.383 3.444,-4.005 4.797,1.654 9.65,14.447 10.319,6.438 5.016,7.025 3.731,-7.545 3.13,2.857 5.713,0.396 3.253,4.333 1.955,0.342 0.342,-2.556 2.939,4.442 2.064,-0.765 56.134,-20.994 z m -111.038,-58.785 2.761,-7.681 2.898,-4.032 3.841,0.793 z M 368.1,175.602 l -3.923,-7.189 -4.046,-4.223 -1.831,3.021 0.847,7.804 -7.162,-6.246 -4.757,10.456 -0.437,-4.059 3.882,-8.597 0.055,-5.098 -6.123,-8.802 1.039,-7.763 5.932,-11.372 8.269,8.283 0.328,4.948 4.21,5.084 0.984,8.788 4.346,7.258 z m 38.038,42.138 -10.483,-5.522 -5.085,-3.499 -3.964,0.82 -6.574,-5.781 -4.442,-1.654 -0.41,-2.706 -2.009,-2.747 5.754,-11.208 -0.055,-9.404 5.481,-5.727 -2.87,7.408 2.091,3.472 4.264,10.634 2.843,1.135 9.308,10.306 0.642,3.745 7.681,7.996 10.265,10.415 z m 148.993,2.214 4.128,-4.278 -4.128,8.898 z m 2.365,56.558 -2.993,-1.75 -3.458,-6.151 -5.522,-1.039 1.859,5.631 -3.663,-1.49 -4.961,2.583 3.868,-4.756 -0.765,-4.237 10.374,-3.977 15.595,24.329 z m 34.074,24.397 -7.053,-4.538 6.793,2.474 -9.554,-9.814 13.217,7.668 8.87,10.866 z"
   id="path314" />

		</g>

		<g
   id="g320">
			<path
   style="fill:#292f44"
   d="m 639.326,341.052 -46.58,17.413 -29.29,4.839 -43.573,10.169 -53.975,16.374 -52.621,-11.522 -18.165,8.638 -11.604,-11.358 -71.866,28.744 -92.491,-44.967 -45.391,11.877 -17.673,-8.16 -15.281,4.674 -13.723,-7.927 -20.515,5.918 -13.641,-7.176 -15.24,3.253 c 0,0 -24.397,-2.433 -23.96,-2.775 5.29,-2.296 10.634,-4.524 16.005,-6.643 l 4.606,-9.896 28.839,-18.971 16.525,-26.106 26.584,-31.354 13.176,0.191 8.228,-5.085 32.215,-35.919 7.613,0.014 33.5,-33.172 2.201,54.822 11.18,42.165 22.962,18.807 -4.879,-35.66 -11.194,-10.06 -14.584,-24.725 21.951,18.821 -15.185,-32.42 12.479,11.686 -5.823,-14.338 -8.474,-12.93 5.877,3.923 3.704,-2.146 2.556,1.066 4.1,-2.392 8.939,-5.208 3.69,17.85 5.126,4.798 8.201,-9.349 20.598,-9.417 c -0.219,0.492 -0.287,20.762 -0.287,20.762 l 25.737,31.45 3.267,18.739 0.041,0.246 -4.907,16.962 22.429,15.773 -0.806,-17.632 -5.686,-5.207 -9.526,-17.768 13.791,12.246 -13.408,-35.099 -1.394,-10.073 26.502,26.652 12.711,13.176 24.479,17.741 -7.203,-18.834 12.698,-0.929 6.82,1.79 30.807,26.885 -8.064,-14.105 29.031,18.602 16.798,12.984 4.715,-1.9 3.663,3.349 10.593,3.827 9.814,5.631 17.714,-15.089 6.233,-13.518 15.363,22.648 4.551,-2.118 4.552,5.973 10.524,-8.406 5.344,-9.335 3.69,0.383 3.444,-4.005 4.797,1.654 9.65,14.447 10.319,6.438 5.016,7.025 3.731,-7.545 3.13,2.857 5.713,0.396 3.253,4.333 1.955,0.342 0.342,-2.556 z"
   id="path318" />

		</g>

		<path
   style="fill:#ffffff"
   d="m 518.091,263.828 -2.884,-6.834 -0.943,-3.157 19.805,10.319 -13.094,-14.283 -10.278,-5.481 -5.741,-11.85 -6.547,-3.649 -2.077,-4.688 -24.684,-19.012 -7.613,-14.133 -9.95,-18.506 -7.203,-8.283 -7.558,-15.923 -18.001,-13.053 -9.991,-13.422 -8.72,-13.764 -21.349,-14.597 -0.383,6.028 7.517,4.51 0.656,9.021 0.875,3.718 2.569,4.005 -3.991,-0.314 -0.97,-3.636 -11.932,-12.916 -4.92,-1.353 -0.041,-0.014 -2.105,-0.588 -4.879,-2.392 -0.314,8.884 2.351,-1.23 -5.891,16.921 7.709,11.085 2.98,-3.458 2.925,2.214 -2.775,4.715 -1.367,11.604 3.964,-5.112 1.052,-7.394 13.08,9.075 0.342,11.358 -3.13,0.957 3.909,1.353 0.56,5.823 2.802,-2.775 -2.46,8.119 1.749,-0.67 2.501,5.864 -0.902,6.588 15.622,8.351 -1.927,-6.356 10.757,7.449 -5.781,-11.126 11.549,8.529 5.084,-0.437 8.953,9.54 8.228,14.092 8.611,6.588 7.709,1.9 23.823,26.092 0.246,-4.155 5.125,3.964 7.736,12.26 16.388,15.65 -10.005,-18.848 6.615,1.613 z m -92.436,-81.338 -20.994,-20.064 -4.524,-10.552 -8.775,-8.146 -5.249,-10.292 8.816,6.26 -3.034,-7.75 10.893,8.16 8.556,11.317 14.338,12.342 z"
   id="path322" />

		<polygon
   style="fill:#ffffff"
   points="620.765,267.969 606.058,250.16 601.507,250.529 587.675,241.823 580.28,242.151 561.35,224.451 564.508,216.865 554.872,205.657 545.578,204.263 544.908,201.024 540.274,199.575 532.402,183.652 526.866,168.781 525.158,159.651 515.18,154.717 513.28,152.599 520.265,147.91 544.224,167.1 565.574,203.17 573.009,203.785 588.508,227.813 599.948,237.148 607.206,243.777 626.109,268.038 "
   id="polygon324" />

		<g
   id="g328">
			<polygon
   style="fill:#373d52"
   points="381.262,93.512 380.879,99.54 388.397,104.05 389.053,113.071 389.927,116.789 392.497,120.793 388.506,120.479 387.536,116.843 375.603,103.927 370.683,102.574 "
   id="polygon326" />

		</g>

		<polygon
   style="fill:#edf0f7"
   points="347.229,179.224 346.792,175.164 350.673,166.567 350.728,161.469 344.605,152.667 345.643,144.904 351.575,133.532 359.844,141.815 360.172,146.762 364.382,151.847 365.366,160.635 369.713,167.893 368.1,175.602 364.177,168.412 360.131,164.189 358.3,167.21 359.147,175.014 351.985,168.768 "
   id="polygon330" />

		<polygon
   style="fill:#edf0f7"
   points="375.59,202.104 375.18,199.398 373.171,196.65 378.925,185.443 378.87,176.039 384.351,170.312 381.481,177.72 383.572,181.192 387.836,191.825 390.679,192.96 399.987,203.266 400.629,207.01 408.311,215.006 418.575,225.421 406.138,217.74 395.654,212.218 390.57,208.719 386.606,209.539 380.032,203.758 "
   id="polygon332" />

		<g
   id="g336">
			<polygon
   style="fill:#373d52"
   points="386.114,133.436 394.93,139.696 391.896,131.946 402.789,140.106 411.345,151.423 425.683,163.765 425.655,182.49 404.661,162.426 400.137,151.874 391.363,143.728 "
   id="polygon334" />

		</g>

		<path
   style="fill:#ffffff"
   d="m 471.484,308.795 -50.353,-38.926 -14.57,0.328 -25.586,-13.641 -51.569,-37.778 c -4.989,-3.786 -9.964,-7.572 -14.953,-11.358 -0.219,0.492 -0.287,20.762 -0.287,20.762 l 25.737,31.45 3.267,18.739 0.041,0.246 -4.907,16.962 22.429,15.773 -0.806,-17.632 -5.686,-5.207 -9.526,-17.768 13.791,12.246 -13.408,-35.099 -1.394,-10.073 26.502,26.652 12.711,13.176 24.479,17.741 -7.203,-18.834 12.698,-0.929 6.82,1.79 30.807,26.885 -8.064,-14.105 z"
   id="path338" />

		<polygon
   style="fill:#ffffff"
   points="551.045,268.612 545.523,267.573 547.382,273.204 543.719,271.714 538.757,274.298 542.625,269.541 541.86,265.304 552.234,261.327 567.829,285.656 557.496,276.512 554.503,274.762 "
   id="polygon340" />

		<polygon
   style="fill:#ffffff"
   points="591.57,300.909 584.517,296.371 591.31,298.845 581.756,289.032 594.973,296.699 603.844,307.565 "
   id="polygon342" />

		<polygon
   style="fill:#ffffff"
   points="555.131,224.574 555.131,219.954 559.259,215.676 "
   id="polygon344" />

		<polygon
   style="fill:#ffffff"
   points="516.779,209.266 519.54,201.584 522.438,197.552 526.278,198.345 "
   id="polygon346" />

		<polygon
   style="fill:#ffffff"
   points="261.244,210.072 263.8,211.138 267.9,208.746 241.029,192.126 243.23,246.948 254.41,289.114 277.372,307.921 272.493,272.261 261.299,262.202 246.715,237.476 268.666,256.297 253.481,223.877 265.96,235.563 260.137,221.225 251.663,208.295 257.54,212.218 "
   id="polygon348" />

		<polygon
   style="fill:#ffffff"
   points="293.856,216.838 285.655,226.187 280.529,221.389 276.839,203.539 289.837,184.581 320.631,157.505 319.497,159.952 307.155,180.18 289.14,194.655 280.994,205.644 "
   id="polygon350" />

	</g>

</g>
</svg>
