{
  "accessors": [
    {
      "bufferView": 2,
      "componentType": 5126,
      "count": 788,
      "max": [
        1.0,
        0.9495190978050232,
        0.2160732001066208
      ],
      "min": [
        -0.7876263856887817,
        -0.9495190978050232,
        0.07465719431638718
      ],
      "type": "VEC3"
    },
    {
      "bufferView": 2,
      "byteOffset": 9456,
      "componentType": 5126,
      "count": 788,
      "max": [
        1.0,
        0.9985126852989197,
        0.998274564743042
      ],
      "min": [
        -0.9907395243644714,
        -0.9985126852989197,
        -0.9994773864746094
      ],
      "type": "VEC3"
    },
    {
      "bufferView": 3,
      "componentType": 5126,
      "count": 788,
      "max": [
        0.9994773864746094,
        0.9999995231628418,
        0.9999825954437256,
        1.0
      ],
      "min": [
        -0.9602957367897034,
        -0.9999995231628418,
        -1.0,
        -1.0
      ],
      "type": "VEC4"
    },
    {
      "bufferView": 1,
      "componentType": 5126,
      "count": 788,
      "max": [
        0.49375346302986145,
        0.48626309633255005
      ],
      "min": [
        0.03173026442527771,
        0.024439960718154907
      ],
      "type": "VEC2"
    },
    {
      "bufferView": 0,
      "componentType": 5125,
      "count": 2664,
      "type": "SCALAR"
    },
    {
      "bufferView": 2,
      "byteOffset": 18912,
      "componentType": 5126,
      "count": 7283,
      "max": [
        0.986613392829895,
        0.9331852793693542,
        0.09248597919940948
      ],
      "min": [
        -0.7675386071205139,
        -0.9331852793693542,
        -0.09790705144405365
      ],
      "type": "VEC3"
    },
    {
      "bufferView": 2,
      "byteOffset": 106308,
      "componentType": 5126,
      "count": 7283,
      "max": [
        1.0,
        1.0,
        1.0
      ],
      "min": [
        -1.0,
        -1.0,
        -1.0
      ],
      "type": "VEC3"
    },
    {
      "bufferView": 3,
      "byteOffset": 12608,
      "componentType": 5126,
      "count": 7283,
      "max": [
        1.0,
        0.9992768168449402,
        0.9991545677185059,
        1.0
      ],
      "min": [
        -1.0,
        -0.9991839528083801,
        -1.0,
        -1.0
      ],
      "type": "VEC4"
    },
    {
      "bufferView": 1,
      "byteOffset": 6304,
      "componentType": 5126,
      "count": 7283,
      "max": [
        0.4937386214733124,
        0.6017796397209167
      ],
      "min": [
        0.227700337767601,
        0.024439960718154907
      ],
      "type": "VEC2"
    },
    {
      "bufferView": 0,
      "byteOffset": 10656,
      "componentType": 5125,
      "count": 25740,
      "type": "SCALAR"
    },
    {
      "bufferView": 2,
      "byteOffset": 193704,
      "componentType": 5126,
      "count": 684,
      "max": [
        0.9971541166305542,
        0.9971541166305542,
        4.361911296844482
      ],
      "min": [
        -0.9971541166305542,
        -0.9971541166305542,
        -1.7009259462356567
      ],
      "type": "VEC3"
    },
    {
      "bufferView": 2,
      "byteOffset": 201912,
      "componentType": 5126,
      "count": 684,
      "max": [
        0.9999216198921204,
        0.9999216198921204,
        1.0
      ],
      "min": [
        -0.9999216198921204,
        -0.9999216198921204,
        -0.9983790516853333
      ],
      "type": "VEC3"
    },
    {
      "bufferView": 3,
      "byteOffset": 129136,
      "componentType": 5126,
      "count": 684,
      "max": [
        0.998379111289978,
        0.9997782707214355,
        0.9999216198921204,
        1.0
      ],
      "min": [
        -1.0,
        -0.9997782707214355,
        -0.9996476769447327,
        -1.0
      ],
      "type": "VEC4"
    },
    {
      "bufferView": 1,
      "byteOffset": 64568,
      "componentType": 5126,
      "count": 684,
      "max": [
        0.4854351282119751,
        0.49347156286239624
      ],
      "min": [
        0.03173026442527771,
        0.013565987348556519
      ],
      "type": "VEC2"
    },
    {
      "bufferView": 0,
      "byteOffset": 113616,
      "componentType": 5125,
      "count": 2016,
      "type": "SCALAR"
    },
    {
      "bufferView": 2,
      "byteOffset": 210120,
      "componentType": 5126,
      "count": 402,
      "max": [
        0.5630809664726257,
        0.5142655968666077,
        0.2776021361351013
      ],
      "min": [
        -0.7318032383918762,
        -0.5142655968666077,
        -7.113336031316919e-10
      ],
      "type": "VEC3"
    },
    {
      "bufferView": 2,
      "byteOffset": 214944,
      "componentType": 5126,
      "count": 402,
      "max": [
        0.9991894364356995,
        0.9972017407417297,
        0.9999977946281433
      ],
      "min": [
        -0.9996866583824158,
        -0.9972016215324402,
        -1.0
      ],
      "type": "VEC3"
    },
    {
      "bufferView": 3,
      "byteOffset": 140080,
      "componentType": 5126,
      "count": 402,
      "max": [
        0.8294349908828735,
        1.0,
        0.9999121427536011,
        1.0
      ],
      "min": [
        -0.38971829414367676,
        -0.3249516487121582,
        -0.9998865723609924,
        -1.0
      ],
      "type": "VEC4"
    },
    {
      "bufferView": 1,
      "byteOffset": 70040,
      "componentType": 5126,
      "count": 402,
      "max": [
        0.9589287042617798,
        0.9646207094192505
      ],
      "min": [
        0.5060990452766418,
        0.5092676281929016
      ],
      "type": "VEC2"
    },
    {
      "bufferView": 0,
      "byteOffset": 121680,
      "componentType": 5125,
      "count": 1836,
      "type": "SCALAR"
    },
    {
      "bufferView": 2,
      "byteOffset": 219768,
      "componentType": 5126,
      "count": 922,
      "max": [
        0.6676855087280273,
        0.6499302387237549,
        1.2700612545013428
      ],
      "min": [
        -0.6624860763549805,
        -0.6499302387237549,
        0.9169604182243347
      ],
      "type": "VEC3"
    },
    {
      "bufferView": 2,
      "byteOffset": 230832,
      "componentType": 5126,
      "count": 922,
      "max": [
        0.9906994104385376,
        0.9796617031097412,
        0.9999734163284302
      ],
      "min": [
        -0.9901297688484192,
        -0.9796618819236755,
        -0.9999788403511047
      ],
      "type": "VEC3"
    },
    {
      "bufferView": 3,
      "byteOffset": 146512,
      "componentType": 5126,
      "count": 922,
      "max": [
        0.9999734163284302,
        0.999977171421051,
        0.9991695284843445,
        1.0
      ],
      "min": [
        -0.99997878074646,
        -0.999977171421051,
        -0.9995383620262146,
        -1.0
      ],
      "type": "VEC4"
    },
    {
      "bufferView": 1,
      "byteOffset": 73256,
      "componentType": 5126,
      "count": 922,
      "max": [
        0.4932233691215515,
        0.9800390601158142
      ],
      "min": [
        0.004513082094490528,
        0.5199344754219055
      ],
      "type": "VEC2"
    },
    {
      "bufferView": 0,
      "byteOffset": 129024,
      "componentType": 5125,
      "count": 3156,
      "type": "SCALAR"
    },
    {
      "bufferView": 2,
      "byteOffset": 241896,
      "componentType": 5126,
      "count": 600,
      "max": [
        0.6499508023262024,
        0.38994988799095154,
        2.408646821975708
      ],
      "min": [
        0.35480591654777527,
        -0.38994988799095154,
        1.122058629989624
      ],
      "type": "VEC3"
    },
    {
      "bufferView": 2,
      "byteOffset": 249096,
      "componentType": 5126,
      "count": 600,
      "max": [
        0.9999967217445374,
        0.9939792156219482,
        0.9999000430107117
      ],
      "min": [
        -0.9997599720954895,
        -0.9939792156219482,
        -0.991619348526001
      ],
      "type": "VEC3"
    },
    {
      "bufferView": 3,
      "byteOffset": 161264,
      "componentType": 5126,
      "count": 600,
      "max": [
        0.9999001026153564,
        1.0,
        0.8606471419334412,
        1.0
      ],
      "min": [
        -0.9916192889213562,
        -1.0,
        -0.9866876006126404,
        1.0
      ],
      "type": "VEC4"
    },
    {
      "bufferView": 1,
      "byteOffset": 80632,
      "componentType": 5126,
      "count": 600,
      "max": [
        0.9934398531913757,
        0.9719293117523193
      ],
      "min": [
        0.5060990452766418,
        0.5092676281929016
      ],
      "type": "VEC2"
    },
    {
      "bufferView": 0,
      "byteOffset": 141648,
      "componentType": 5125,
      "count": 2724,
      "type": "SCALAR"
    },
    {
      "bufferView": 2,
      "byteOffset": 256296,
      "componentType": 5126,
      "count": 240,
      "max": [
        0.6109222173690796,
        0.3015708029270172,
        0.47079017758369446
      ],
      "min": [
        0.43202799558639526,
        -0.3015708029270172,
        0.045952487736940384
      ],
      "type": "VEC3"
    },
    {
      "bufferView": 2,
      "byteOffset": 259176,
      "componentType": 5126,
      "count": 240,
      "max": [
        0.99495929479599,
        1.0,
        0.9949594140052795
      ],
      "min": [
        -0.99495929479599,
        -1.0,
        -0.99495929479599
      ],
      "type": "VEC3"
    },
    {
      "bufferView": 3,
      "byteOffset": 170864,
      "componentType": 5126,
      "count": 240,
      "max": [
        0.9949594140052795,
        1.0,
        0.7053496837615967,
        1.0
      ],
      "min": [
        -0.9949594140052795,
        -1.0,
        -0.7050828337669373,
        -1.0
      ],
      "type": "VEC4"
    },
    {
      "bufferView": 1,
      "byteOffset": 85432,
      "componentType": 5126,
      "count": 240,
      "max": [
        0.15201351046562195,
        0.8911167979240417
      ],
      "min": [
        0.05254971608519554,
        0.7891584634780884
      ],
      "type": "VEC2"
    },
    {
      "bufferView": 0,
      "byteOffset": 152544,
      "componentType": 5125,
      "count": 648,
      "type": "SCALAR"
    },
    {
      "bufferView": 2,
      "byteOffset": 262056,
      "componentType": 5126,
      "count": 1364,
      "max": [
        0.709357738494873,
        0.8576825261116028,
        2.0942699909210205
      ],
      "min": [
        -0.4737832546234131,
        -0.8576825261116028,
        0.9351975321769714
      ],
      "type": "VEC3"
    },
    {
      "bufferView": 2,
      "byteOffset": 278424,
      "componentType": 5126,
      "count": 1364,
      "max": [
        1.0,
        1.0,
        0.9999993443489075
      ],
      "min": [
        -1.0,
        -1.0,
        -0.9999997615814209
      ],
      "type": "VEC3"
    },
    {
      "bufferView": 3,
      "byteOffset": 174704,
      "componentType": 5126,
      "count": 1364,
      "max": [
        0.8910322189331055,
        0.9999988675117493,
        0.9911763072013855,
        1.0
      ],
      "min": [
        -0.9623756408691406,
        -0.9999988675117493,
        -0.9996724724769592,
        -1.0
      ],
      "type": "VEC4"
    },
    {
      "bufferView": 1,
      "byteOffset": 87352,
      "componentType": 5126,
      "count": 1364,
      "max": [
        0.46545717120170593,
        0.9708413481712341
      ],
      "min": [
        0.004513082094490528,
        0.5199344754219055
      ],
      "type": "VEC2"
    },
    {
      "bufferView": 0,
      "byteOffset": 155136,
      "componentType": 5125,
      "count": 5280,
      "type": "SCALAR"
    },
    {
      "bufferView": 2,
      "byteOffset": 294792,
      "componentType": 5126,
      "count": 6030,
      "max": [
        0.8560670614242554,
        0.28729864954948425,
        2.632337808609009
      ],
      "min": [
        0.7066587209701538,
        -0.28729864954948425,
        1.0764561891555786
      ],
      "type": "VEC3"
    },
    {
      "bufferView": 2,
      "byteOffset": 367152,
      "componentType": 5126,
      "count": 6030,
      "max": [
        0.999763011932373,
        1.0,
        0.9885205626487732
      ],
      "min": [
        -0.9997691512107849,
        -0.9999887347221375,
        -0.9970198273658752
      ],
      "type": "VEC3"
    },
    {
      "bufferView": 3,
      "byteOffset": 196528,
      "componentType": 5126,
      "count": 6030,
      "max": [
        0.9999239444732666,
        1.0,
        0.9997691512107849,
        1.0
      ],
      "min": [
        -0.9998249411582947,
        -1.0,
        -0.9984166026115417,
        -1.0
      ],
      "type": "VEC4"
    },
    {
      "bufferView": 1,
      "byteOffset": 98264,
      "componentType": 5126,
      "count": 6030,
      "max": [
        0.994765043258667,
        0.4420408010482788
      ],
      "min": [
        0.5061507225036621,
        0.03509745001792908
      ],
      "type": "VEC2"
    },
    {
      "bufferView": 0,
      "byteOffset": 176256,
      "componentType": 5125,
      "count": 25890,
      "type": "SCALAR"
    }
  ],
  "asset": {
    "extras": {
      "author": "crow (https://sketchfab.com/crow.bite)",
      "license": "CC-BY-4.0 (http://creativecommons.org/licenses/by/4.0/)",
      "source": "https://sketchfab.com/3d-models/office-chair-5cd859cd7b9a430db0195af2ba89949b",
      "title": "Office Chair"
    },
    "generator": "Sketchfab-16.45.0",
    "version": "2.0"
  },
  "bufferViews": [
    {
      "buffer": 0,
      "byteLength": 279816,
      "name": "floatBufferViews",
      "target": 34963
    },
    {
      "buffer": 0,
      "byteLength": 146504,
      "byteOffset": 279816,
      "byteStride": 8,
      "name": "floatBufferViews",
      "target": 34962
    },
    {
      "buffer": 0,
      "byteLength": 439512,
      "byteOffset": 426320,
      "byteStride": 12,
      "name": "floatBufferViews",
      "target": 34962
    },
    {
      "buffer": 0,
      "byteLength": 293008,
      "byteOffset": 865832,
      "byteStride": 16,
      "name": "floatBufferViews",
      "target": 34962
    }
  ],
  "buffers": [
    {
      "byteLength": 1158840,
      "uri": "scene.bin"
    }
  ],
  "images": [
    {
      "uri": "textures/Scene_-_Root_baseColor.png"
    },
    {
      "uri": "textures/Scene_-_Root_metallicRoughness.png"
    },
    {
      "uri": "textures/Scene_-_Root_normal.png"
    }
  ],
  "materials": [
    {
      "doubleSided": true,
      "name": "Scene_-_Root",
      "normalTexture": {
        "index": 2
      },
      "occlusionTexture": {
        "index": 1
      },
      "pbrMetallicRoughness": {
        "baseColorTexture": {
          "index": 0
        },
        "metallicRoughnessTexture": {
          "index": 1
        }
      }
    }
  ],
  "meshes": [
    {
      "name": "Cube__0",
      "primitives": [
        {
          "attributes": {
            "NORMAL": 1,
            "POSITION": 0,
            "TANGENT": 2,
            "TEXCOORD_0": 3
          },
          "indices": 4,
          "material": 0,
          "mode": 4
        }
      ]
    },
    {
      "name": "Circle__0",
      "primitives": [
        {
          "attributes": {
            "NORMAL": 6,
            "POSITION": 5,
            "TANGENT": 7,
            "TEXCOORD_0": 8
          },
          "indices": 9,
          "material": 0,
          "mode": 4
        }
      ]
    },
    {
      "name": "Cylinder__0",
      "primitives": [
        {
          "attributes": {
            "NORMAL": 11,
            "POSITION": 10,
            "TANGENT": 12,
            "TEXCOORD_0": 13
          },
          "indices": 14,
          "material": 0,
          "mode": 4
        }
      ]
    },
    {
      "name": "Plane__0",
      "primitives": [
        {
          "attributes": {
            "NORMAL": 16,
            "POSITION": 15,
            "TANGENT": 17,
            "TEXCOORD_0": 18
          },
          "indices": 19,
          "material": 0,
          "mode": 4
        }
      ]
    },
    {
      "name": "Plane.002__0",
      "primitives": [
        {
          "attributes": {
            "NORMAL": 21,
            "POSITION": 20,
            "TANGENT": 22,
            "TEXCOORD_0": 23
          },
          "indices": 24,
          "material": 0,
          "mode": 4
        }
      ]
    },
    {
      "name": "Plane.003__0",
      "primitives": [
        {
          "attributes": {
            "NORMAL": 26,
            "POSITION": 25,
            "TANGENT": 27,
            "TEXCOORD_0": 28
          },
          "indices": 29,
          "material": 0,
          "mode": 4
        }
      ]
    },
    {
      "name": "Plane.004__0",
      "primitives": [
        {
          "attributes": {
            "NORMAL": 31,
            "POSITION": 30,
            "TANGENT": 32,
            "TEXCOORD_0": 33
          },
          "indices": 34,
          "material": 0,
          "mode": 4
        }
      ]
    },
    {
      "name": "Plane.005__0",
      "primitives": [
        {
          "attributes": {
            "NORMAL": 36,
            "POSITION": 35,
            "TANGENT": 37,
            "TEXCOORD_0": 38
          },
          "indices": 39,
          "material": 0,
          "mode": 4
        }
      ]
    },
    {
      "name": "cable__0",
      "primitives": [
        {
          "attributes": {
            "NORMAL": 41,
            "POSITION": 40,
            "TANGENT": 42,
            "TEXCOORD_0": 43
          },
          "indices": 44,
          "material": 0,
          "mode": 4
        }
      ]
    }
  ],
  "nodes": [
    {
      "children": [
        1
      ],
      "matrix": [
        0.4288375973701477,
        0.0,
        0.0,
        0.0,
        0.0,
        9.522107488505409e-17,
        -0.4288375973701477,
        0.0,
        0.0,
        0.4288375973701477,
        9.522107488505409e-17,
        0.0,
        0.0,
        0.0,
        0.0,
        1.0
      ],
      "name": "Sketchfab_model"
    },
    {
      "children": [
        2
      ],
      "matrix": [
        0.009999999776482582,
        0.0,
        0.0,
        0.0,
        0.0,
        0.0,
        0.009999999776482582,
        0.0,
        0.0,
        -0.009999999776482582,
        0.0,
        0.0,
        0.0,
        0.0,
        0.0,
        1.0
      ],
      "name": "officechair.fbx"
    },
    {
      "children": [
        3,
        5,
        7,
        9,
        11,
        13,
        15,
        17,
        19
      ],
      "name": "RootNode"
    },
    {
      "children": [
        4
      ],
      "matrix": [
        100.0,
        0.0,
        0.0,
        0.0,
        0.0,
        -1.629206793918314e-05,
        -99.99999999999868,
        0.0,
        0.0,
        99.99999999999868,
        -1.629206793918314e-05,
        0.0,
        0.0,
        9.790704727172852,
        0.0,
        1.0
      ],
      "name": "Cube"
    },
    {
      "mesh": 0,
      "name": "Cube__0"
    },
    {
      "children": [
        6
      ],
      "matrix": [
        100.0,
        0.0,
        0.0,
        0.0,
        0.0,
        -1.629206793918314e-05,
        -99.99999999999868,
        0.0,
        0.0,
        99.99999999999868,
        -1.629206793918314e-05,
        0.0,
        0.0,
        9.790704727172852,
        0.0,
        1.0
      ],
      "name": "Circle"
    },
    {
      "mesh": 1,
      "name": "Circle__0"
    },
    {
      "children": [
        8
      ],
      "matrix": [
        12.58653736114502,
        0.0,
        0.0,
        0.0,
        0.0,
        -2.0506072180684157e-06,
        -12.586537361144853,
        0.0,
        0.0,
        12.586537361144853,
        -2.0506072180684157e-06,
        0.0,
        0.047553107142448425,
        46.990074157714844,
        0.13065218925476074,
        1.0
      ],
      "name": "Cylinder"
    },
    {
      "mesh": 2,
      "name": "Cylinder__0"
    },
    {
      "children": [
        10
      ],
      "matrix": [
        115.28730773925781,
        0.0,
        0.0,
        0.0,
        0.0,
        -2.2063163093963392e-05,
        -135.4227294921857,
        0.0,
        0.0,
        115.28730773925629,
        -1.8782686502135026e-05,
        0.0,
        0.05239948630332947,
        105.10903930664063,
        0.1615060418844223,
        1.0
      ],
      "name": "Plane"
    },
    {
      "mesh": 3,
      "name": "Plane__0"
    },
    {
      "children": [
        12
      ],
      "matrix": [
        115.28730773925781,
        0.0,
        0.0,
        0.0,
        -0.0,
        -2.2063163093963392e-05,
        -135.4227294921857,
        0.0,
        0.0,
        115.28730773925629,
        -1.8782686502135026e-05,
        0.0,
        -0.002423195168375969,
        -5.142108917236328,
        -0.015426875092089176,
        1.0
      ],
      "name": "Plane.002"
    },
    {
      "mesh": 4,
      "name": "Plane.002__0"
    },
    {
      "children": [
        14
      ],
      "matrix": [
        133.23841857910156,
        0.0,
        0.0,
        0.0,
        -0.0,
        -2.716751799707176e-05,
        -166.75303649902122,
        0.0,
        0.0,
        133.2384185790998,
        -2.170729367600044e-05,
        0.0,
        -0.002423195168375969,
        -8.2492036819458,
        -0.015426875092089176,
        1.0
      ],
      "name": "Plane.003"
    },
    {
      "mesh": 5,
      "name": "Plane.003__0"
    },
    {
      "children": [
        16
      ],
      "matrix": [
        44.870452880859375,
        0.0,
        0.0,
        0.0,
        0.0,
        -2.2063163093963392e-05,
        -135.4227294921857,
        0.0,
        0.0,
        115.28730773925629,
        -1.8782686502135026e-05,
        0.0,
        36.464725494384766,
        105.10903930664063,
        0.1615060418844223,
        1.0
      ],
      "name": "Plane.004"
    },
    {
      "mesh": 6,
      "name": "Plane.004__0"
    },
    {
      "children": [
        18
      ],
      "matrix": [
        100.0,
        0.0,
        0.0,
        0.0,
        0.0,
        -1.629206793918314e-05,
        -99.99999999999868,
        0.0,
        0.0,
        99.99999999999868,
        -1.629206793918314e-05,
        0.0,
        0.0,
        9.790704727172852,
        0.0,
        1.0
      ],
      "name": "Plane.005"
    },
    {
      "mesh": 7,
      "name": "Plane.005__0"
    },
    {
      "children": [
        20
      ],
      "matrix": [
        100.0,
        0.0,
        0.0,
        0.0,
        0.0,
        -1.629206793918314e-05,
        -99.99999999999868,
        0.0,
        0.0,
        99.99999999999868,
        -1.629206793918314e-05,
        0.0,
        0.0,
        9.790704727172852,
        0.0,
        1.0
      ],
      "name": "cable"
    },
    {
      "mesh": 8,
      "name": "cable__0"
    }
  ],
  "samplers": [
    {
      "magFilter": 9729,
      "minFilter": 9987,
      "wrapS": 10497,
      "wrapT": 10497
    }
  ],
  "scene": 0,
  "scenes": [
    {
      "name": "Sketchfab_Scene",
      "nodes": [
        0
      ]
    }
  ],
  "textures": [
    {
      "sampler": 0,
      "source": 0
    },
    {
      "sampler": 0,
      "source": 1
    },
    {
      "sampler": 0,
      "source": 2
    }
  ]
}
