{
  "accessors": [
    {
      "bufferView": 2,
      "componentType": 5126,
      "count": 317,
      "max": [
        0.48995882272720337,
        0.42788076400756836,
        0.6091372966766357
      ],
      "min": [
        -0.4431392550468445,
        -0.6778613328933716,
        0.00013728998601436615
      ],
      "type": "VEC3"
    },
    {
      "bufferView": 2,
      "byteOffset": 3804,
      "componentType": 5126,
      "count": 317,
      "max": [
        1.0,
        1.0,
        1.0
      ],
      "min": [
        -1.0,
        -1.0,
        -1.0
      ],
      "type": "VEC3"
    },
    {
      "bufferView": 1,
      "componentType": 5126,
      "count": 317,
      "max": [
        0.8518934845924377,
        0.9904423952102661
      ],
      "min": [
        0.009557570330798626,
        0.00955757312476635
      ],
      "type": "VEC2"
    },
    {
      "bufferView": 0,
      "componentType": 5125,
      "count": 609,
      "type": "SCALAR"
    },
    {
      "bufferView": 2,
      "byteOffset": 7608,
      "componentType": 5126,
      "count": 9,
      "max": [
        0.2761884927749634,
        -0.06739187240600586,
        0.5549713969230652
      ],
      "min": [
        -0.24014253914356232,
        -0.12522339820861816,
        0.20584489405155182
      ],
      "type": "VEC3"
    },
    {
      "bufferView": 2,
      "byteOffset": 7716,
      "componentType": 5126,
      "count": 9,
      "max": [
        0.11942795664072037,
        -0.962730884552002,
        0.24266743659973145
      ],
      "min": [
        -0.11942879110574722,
        -0.9971163272857666,
        0.028881434351205826
      ],
      "type": "VEC3"
    },
    {
      "bufferView": 1,
      "byteOffset": 2536,
      "componentType": 5126,
      "count": 9,
      "max": [
        0.9999175071716309,
        0.999740719795227
      ],
      "min": [
        8.247970254160464e-05,
        0.0002592504024505615
      ],
      "type": "VEC2"
    },
    {
      "bufferView": 0,
      "byteOffset": 2436,
      "componentType": 5125,
      "count": 36,
      "type": "SCALAR"
    }
  ],
  "asset": {
    "extras": {
      "author": "SketchyBot (https://sketchfab.com/SketchyB0t_3D_Fabrication)",
      "license": "SKETCHFAB Standard (https://sketchfab.com/licenses)",
      "source": "https://sketchfab.com/3d-models/old-computer-v2-b389fddc31ea459597fb3e1d23dcb545",
      "title": "Old Computer V2"
    },
    "generator": "Sketchfab-16.54.0",
    "version": "2.0"
  },
  "bufferViews": [
    {
      "buffer": 0,
      "byteLength": 2580,
      "name": "floatBufferViews",
      "target": 34963
    },
    {
      "buffer": 0,
      "byteLength": 2608,
      "byteOffset": 2580,
      "byteStride": 8,
      "name": "floatBufferViews",
      "target": 34962
    },
    {
      "buffer": 0,
      "byteLength": 7824,
      "byteOffset": 5188,
      "byteStride": 12,
      "name": "floatBufferViews",
      "target": 34962
    }
  ],
  "buffers": [
    {
      "byteLength": 13012,
      "uri": "scene.bin"
    }
  ],
  "extensionsUsed": [
    "KHR_materials_emissive_strength"
  ],
  "images": [
    {
      "uri": "textures/Computer.001_baseColor.png"
    },
    {
      "uri": "textures/Screen.001_baseColor.png"
    },
    {
      "uri": "textures/Screen.001_metallicRoughness.png"
    },
    {
      "uri": "textures/Screen.001_emissive.png"
    }
  ],
  "materials": [
    {
      "alphaMode": "BLEND",
      "doubleSided": true,
      "name": "Computer.001",
      "pbrMetallicRoughness": {
        "baseColorTexture": {
          "index": 0
        },
        "metallicFactor": 0.0
      }
    },
    {
      "doubleSided": true,
      "emissiveFactor": [
        1.0,
        1.0,
        1.0
      ],
      "emissiveTexture": {
        "index": 3
      },
      "extensions": {
        "KHR_materials_emissive_strength": {
          "emissiveStrength": 2.0
        }
      },
      "name": "Screen.001",
      "pbrMetallicRoughness": {
        "baseColorTexture": {
          "index": 1
        },
        "metallicFactor": 0.0,
        "metallicRoughnessTexture": {
          "index": 2
        }
      }
    }
  ],
  "meshes": [
    {
      "name": "Computer1_Computer.001_0",
      "primitives": [
        {
          "attributes": {
            "NORMAL": 1,
            "POSITION": 0,
            "TEXCOORD_0": 2
          },
          "indices": 3,
          "material": 0,
          "mode": 4
        }
      ]
    },
    {
      "name": "Computer1_Screen.001_0",
      "primitives": [
        {
          "attributes": {
            "NORMAL": 5,
            "POSITION": 4,
            "TEXCOORD_0": 6
          },
          "indices": 7,
          "material": 1,
          "mode": 4
        }
      ]
    }
  ],
  "nodes": [
    {
      "children": [
        1
      ],
      "matrix": [
        0.8779875636100769,
        1.411893420209121e-16,
        7.171378021336102e-19,
        0.0,
        -3.128243698179044e-33,
        -0.004459472002538102,
        0.8779762598685181,
        0.0,
        1.411911663716903e-16,
        -0.8779762598685181,
        -0.004459472002538102,
        0.0,
        0.0,
        0.0,
        0.0,
        1.0
      ],
      "name": "Sketchfab_model"
    },
    {
      "children": [
        2
      ],
      "matrix": [
        0.009999999776482582,
        0.0,
        0.0,
        0.0,
        0.0,
        0.009999999776482582,
        0.0,
        0.0,
        0.0,
        0.0,
        0.009999999776482582,
        0.0,
        0.0,
        0.0,
        0.0,
        1.0
      ],
      "name": "bda37831dbab481da75e6eaaaf56f7ec.fbx"
    },
    {
      "children": [
        3
      ],
      "name": "RootNode"
    },
    {
      "children": [
        4,
        5
      ],
      "matrix": [
        -1.6292067983592062e-05,
        99.99999999999865,
        0.0,
        0.0,
        99.99999999999828,
        1.6292067994694293e-05,
        -8.742277980456488e-06,
        0.0,
        -8.74227798045637e-06,
        -1.4242978711041864e-12,
        -99.9999999999996,
        0.0,
        0.0,
        0.0,
        0.0,
        1.0
      ],
      "name": "Computer1"
    },
    {
      "mesh": 0,
      "name": "Computer1_Computer.001_0"
    },
    {
      "mesh": 1,
      "name": "Computer1_Screen.001_0"
    }
  ],
  "samplers": [
    {
      "magFilter": 9728,
      "minFilter": 9986,
      "wrapS": 10497,
      "wrapT": 10497
    },
    {
      "magFilter": 9729,
      "minFilter": 9987,
      "wrapS": 10497,
      "wrapT": 10497
    }
  ],
  "scene": 0,
  "scenes": [
    {
      "name": "Sketchfab_Scene",
      "nodes": [
        0
      ]
    }
  ],
  "textures": [
    {
      "sampler": 0,
      "source": 0
    },
    {
      "sampler": 1,
      "source": 1
    },
    {
      "sampler": 0,
      "source": 2
    },
    {
      "sampler": 0,
      "source": 3
    }
  ]
}
