<?xml version="1.0" encoding="UTF-8" standalone="no"?>
<svg
   height="128"
   width="128"
   version="1.1"
   id="svg24"
   xmlns:xlink="http://www.w3.org/1999/xlink"
   xmlns="http://www.w3.org/2000/svg"
   xmlns:svg="http://www.w3.org/2000/svg">
  <defs
     id="defs28">
    <linearGradient
       id="linearGradient2047">
      <stop
         style="stop-color:#dcc47b;stop-opacity:1;"
         offset="0"
         id="stop2043" />
      <stop
         style="stop-color:#f7d1ad;stop-opacity:1;"
         offset="1"
         id="stop2045" />
    </linearGradient>
    <linearGradient
       id="linearGradient2039">
      <stop
         style="stop-color:#204eda;stop-opacity:1;"
         offset="0"
         id="stop2035" />
      <stop
         style="stop-color:#57a7f6;stop-opacity:1;"
         offset="1"
         id="stop2037" />
    </linearGradient>
    <linearGradient
       xlink:href="#linearGradient2039"
       id="linearGradient2041"
       x1="65"
       y1="92"
       x2="64.75"
       y2="64"
       gradientUnits="userSpaceOnUse"
       gradientTransform="matrix(0.99585062,0,0,1,0.26556017,0)" />
    <linearGradient
       xlink:href="#linearGradient2047"
       id="linearGradient2049"
       x1="62.004505"
       y1="91.408188"
       x2="62.159714"
       y2="123.65819"
       gradientUnits="userSpaceOnUse"
       gradientTransform="matrix(0.99663462,0,0,1,0.25813047,0)" />
  </defs>
  <rect
     x="2"
     y="2"
     width="124"
     height="124"
     rx="14"
     fill="#363d52"
     stroke="#212532"
     stroke-width="4"
     id="rect2"
     style="fill:#67c7f3;fill-opacity:1;stroke:#5793bf;stroke-opacity:1" />
  <path
     id="rect2829-5"
     style="fill:#b3b3b4;fill-opacity:1;stroke-width:0.200048;stroke-linecap:round"
     d="m 3.9999998,38.15675 c 0,0 13.6602592,7.974332 22.5000002,8.25 13.521433,0.421667 26.856162,-7.877031 40.75,-9.875 9.452259,1.207758 17.174096,11.948071 31.5,11.125 7.65903,-0.440037 25.25,-6 25.25,-6 l 0,25.387821 H 3.9999998 Z" />
  <rect
     style="fill:url(#linearGradient2041);fill-opacity:1;stroke:none;stroke-width:0.199585;stroke-linecap:round;stroke-opacity:1"
     id="rect1825"
     width="120"
     height="36.5"
     x="4"
     y="63.75"
     rx="0"
     ry="0" />
  <path
     id="rect917"
     style="fill:url(#linearGradient2049);fill-opacity:1;stroke-width:0.199663;stroke-linecap:round"
     d="m 123.99147,94.751225 c 0.0179,6.190775 0.0509,9.892225 0.0599,17.940125 -0.289,4.40917 -3.60076,10.76842 -11.3281,11.32431 -30.498775,-0.0623 -97.139662,-0.0188 -97.139662,-0.0188 -7.8313935,-0.46004 -11.2373618,-6.74875 -11.570585,-10.87769 0,-8.2512 -0.020259,-17.1471 0.022033,-18.765823 39.483113,-3.695613 73.510463,-2.644202 119.978534,0.419971 z" />
  <path
     id="rect2829"
     style="fill:#6a696c;stroke-width:0.200048;stroke-linecap:round"
     d="m 4,43.75 c 0,0 16.535259,-8.025668 25.375,-7.75 13.521433,0.421667 8.856162,5.497969 38,14.25 C 82.952259,43.332758 89.163,29.224504 98.25,36 c 6.04516,4.507423 26,12.875 26,12.875 L 124,64.637825 H 4 Z" />
</svg>
